<svg xmlns="http://www.w3.org/2000/svg" viewBox="0 0 48 60" x="0px" y="0px">
  <g data-name="Livello 2">
    <g>
      <rect class="cls-1" width="48" height="48"/>
      <path d="M32.65,38.06a.78.78,0,0,1-.39-.1l-7.61-4.65a1.22,1.22,0,0,0-1.3,0L15.74,38a.76.76,0,0,1-.83,0,.74.74,0,0,1-.29-.77l2-9a1.25,1.25,0,0,0-.43-1.24l-6.7-5.5a.76.76,0,0,1-.24-.8.75.75,0,0,1,.64-.53l8.57-.88a1.27,1.27,0,0,0,1-.72l3.82-8.14a.78.78,0,0,1,1.36,0l3.82,8.14a1.27,1.27,0,0,0,1,.72l8.57.88a.75.75,0,0,1,.64.53.76.76,0,0,1-.24.8l-6.7,5.5a1.25,1.25,0,0,0-.43,1.24l2,9a.74.74,0,0,1-.29.77A.7.7,0,0,1,32.65,38.06ZM11.87,21.42l5.3,4.36a2.73,2.73,0,0,1,.94,2.73l-1.64,7.24L22.57,32a2.73,2.73,0,0,1,2.86,0l6.1,3.72-1.64-7.24a2.73,2.73,0,0,1,.94-2.73l5.3-4.36-6.78-.7a2.75,2.75,0,0,1-2.2-1.57L24,12.45l-3.15,6.7a2.75,2.75,0,0,1-2.2,1.57Z"/>
    </g>
  </g>
</svg>