<svg xmlns="http://www.w3.org/2000/svg" 
  xmlns:xlink="http://www.w3.org/1999/xlink" version="1.1" x="0px" y="0px" viewBox="0 0 100 125" style="enable-background:new 0 0 100 100;" xml:space="preserve">
  <g>
    <path d="M42,88c5.1,0,9.2-4,9.2-9H32.8C32.8,84,36.9,88,42,88z"/>
    <path d="M68.5,61.1c-0.6-0.6-1.1-1.3-1.5-2c0,0,0-0.1,0-0.1c0-0.5-0.2-1-0.5-1.3c-0.1-0.5-0.2-1.1-0.2-1.7c0,0,0-2.2,0-5.4   C59.1,47.7,54,40.7,54,32.5c0-2.9,0.7-5.7,1.8-8.2C54.9,23.6,54,23,53,22.5C52.7,16.7,47.9,12,42,12c-5.9,0-10.7,4.7-11,10.5   C22.5,27,17.7,36.6,17.7,45.2c0,5.9,0,10.8,0,10.8c0,1.9-0.8,3.8-2.2,5.1l-2.2,2c-2.9,2.6-3,7.2-0.2,9.9h0c1.3,1.3,3,2,4.8,2h19.5   h9.2h19.5c1.8,0,3.5-0.7,4.8-2h0c2.7-2.8,2.6-7.3-0.2-9.9L68.5,61.1z M42,16c3.1,0,5.7,2,6.6,4.8c-1.9-0.5-3.9-0.8-6-0.8h-1.3   c-2.1,0-4.1,0.3-6,0.8C36.3,18,38.9,16,42,16z"/>
    <circle cx="72.5" cy="33.5" r="14.5"/>
  </g>
</svg>