<svg xmlns="http://www.w3.org/2000/svg"
  xmlns:xlink="http://www.w3.org/1999/xlink" version="1.1" x="0px" y="0px" viewBox="0 0 512 640" style="enable-background:new 0 0 512 512;" xml:space="preserve">
  <g>
    <ellipse transform="matrix(0.7071 -0.7071 0.7071 0.7071 -182.082 392.0923)" cx="382.256" cy="415.839" rx="49.974" ry="49.974"/>
    <path d="M461,148.797H146.666l-11.028-55.482c-5.229-27.308-29.456-47.127-57.606-47.127H51c-5.523,0-10,4.477-10,10   s4.477,10,10,10h27.031c18.87,0,34.481,12.702,37.977,30.958l40.409,203.309c4.636,23.324,25.261,40.252,49.041,40.252h182.283   c22.725,0,42.616-15.354,48.37-37.338c0.015-0.056,0.029-0.112,0.042-0.168l34.563-142.039c0.726-2.981,0.042-6.13-1.854-8.543   C466.967,150.206,464.068,148.797,461,148.797z"/>
    <ellipse transform="matrix(0.9732 -0.2298 0.2298 0.9732 -89.9332 59.2831)" cx="209.611" cy="415.839" rx="49.974" ry="49.974"/>
  </g>
</svg>